<svg width="141" height="33" viewBox="0 0 141 33" fill="none" xmlns="http://www.w3.org/2000/svg">
<path d="M18.264 14.6C18.264 16.84 17.528 18.776 16.056 20.408L17.832 22.232L15.888 23.984L14.04 22.088C12.632 22.904 11.136 23.312 9.552 23.312C7.136 23.312 5.08 22.472 3.384 20.792C1.688 19.096 0.84 17.032 0.84 14.6C0.84 12.168 1.688 10.112 3.384 8.432C5.08 6.736 7.136 5.888 9.552 5.888C11.968 5.888 14.024 6.736 15.72 8.432C17.416 10.112 18.264 12.168 18.264 14.6ZM9.552 20.624C10.448 20.624 11.288 20.44 12.072 20.072L9 16.928L10.944 15.176L14.16 18.464C15.056 17.36 15.504 16.072 15.504 14.6C15.504 12.888 14.928 11.456 13.776 10.304C12.624 9.152 11.216 8.576 9.552 8.576C7.888 8.576 6.48 9.152 5.328 10.304C4.176 11.456 3.6 12.888 3.6 14.6C3.6 16.312 4.176 17.744 5.328 18.896C6.48 20.048 7.888 20.624 9.552 20.624ZM31.5341 21.728C30.3501 22.784 28.8221 23.312 26.9501 23.312C25.0781 23.312 23.5501 22.784 22.3661 21.728C21.1821 20.656 20.5901 19.224 20.5901 17.432V6.2H23.3501V17.264C23.3501 18.288 23.6461 19.104 24.2381 19.712C24.8461 20.32 25.7501 20.624 26.9501 20.624C28.1501 20.624 29.0461 20.32 29.6381 19.712C30.2461 19.104 30.5501 18.288 30.5501 17.264V6.2H33.3101V17.432C33.3101 19.224 32.7181 20.656 31.5341 21.728ZM36.4847 6.2H39.2447V23H36.4847V6.2ZM50.5459 23.312C48.0179 23.312 45.9219 22.48 44.2579 20.816C42.5939 19.136 41.7619 17.064 41.7619 14.6C41.7619 12.136 42.5939 10.072 44.2579 8.408C45.9219 6.728 48.0179 5.888 50.5459 5.888C52.0659 5.888 53.4659 6.248 54.7459 6.968C56.0419 7.688 57.0499 8.664 57.7699 9.896L55.3699 11.288C54.9219 10.456 54.2659 9.8 53.4019 9.32C52.5539 8.824 51.6019 8.576 50.5459 8.576C48.7539 8.576 47.2979 9.144 46.1779 10.28C45.0739 11.416 44.5219 12.856 44.5219 14.6C44.5219 16.344 45.0739 17.784 46.1779 18.92C47.2979 20.056 48.7539 20.624 50.5459 20.624C51.6019 20.624 52.5619 20.384 53.4259 19.904C54.2899 19.408 54.9379 18.744 55.3699 17.912L57.7699 19.28C57.0659 20.512 56.0659 21.496 54.7699 22.232C53.4899 22.952 52.0819 23.312 50.5459 23.312ZM72.7348 23H69.4468L62.8228 15.008V23H60.0628V6.2H62.8228V13.736L69.2068 6.2H72.4948L65.7028 14.384L72.7348 23ZM84.3638 8.84H77.2838V13.544H84.1238V16.184H77.2838V23H74.5238V6.2H84.3638V8.84ZM100.986 20.792C99.3056 22.472 97.2496 23.312 94.8176 23.312C92.3856 23.312 90.3216 22.472 88.6256 20.792C86.9456 19.096 86.1056 17.032 86.1056 14.6C86.1056 12.168 86.9456 10.112 88.6256 8.432C90.3216 6.736 92.3856 5.888 94.8176 5.888C97.2496 5.888 99.3056 6.736 100.986 8.432C102.682 10.112 103.53 12.168 103.53 14.6C103.53 17.032 102.682 19.096 100.986 20.792ZM90.5696 18.92C91.7216 20.056 93.1376 20.624 94.8176 20.624C96.4976 20.624 97.9056 20.056 99.0416 18.92C100.194 17.768 100.77 16.328 100.77 14.6C100.77 12.872 100.194 11.44 99.0416 10.304C97.9056 9.152 96.4976 8.576 94.8176 8.576C93.1376 8.576 91.7216 9.152 90.5696 10.304C89.4336 11.44 88.8656 12.872 88.8656 14.6C88.8656 16.328 89.4336 17.768 90.5696 18.92ZM120.087 20.792C118.407 22.472 116.351 23.312 113.919 23.312C111.487 23.312 109.423 22.472 107.727 20.792C106.047 19.096 105.207 17.032 105.207 14.6C105.207 12.168 106.047 10.112 107.727 8.432C109.423 6.736 111.487 5.888 113.919 5.888C116.351 5.888 118.407 6.736 120.087 8.432C121.783 10.112 122.631 12.168 122.631 14.6C122.631 17.032 121.783 19.096 120.087 20.792ZM109.671 18.92C110.823 20.056 112.239 20.624 113.919 20.624C115.599 20.624 117.007 20.056 118.143 18.92C119.295 17.768 119.871 16.328 119.871 14.6C119.871 12.872 119.295 11.44 118.143 10.304C117.007 9.152 115.599 8.576 113.919 8.576C112.239 8.576 110.823 9.152 109.671 10.304C108.535 11.44 107.967 12.872 107.967 14.6C107.967 16.328 108.535 17.768 109.671 18.92ZM131.749 6.2C134.053 6.2 135.965 7.008 137.485 8.624C139.021 10.24 139.789 12.232 139.789 14.6C139.789 16.952 139.021 18.944 137.485 20.576C135.965 22.192 134.053 23 131.749 23H125.149V6.2H131.749ZM131.749 20.36C133.333 20.36 134.621 19.816 135.613 18.728C136.621 17.64 137.125 16.264 137.125 14.6C137.125 12.92 136.621 11.544 135.613 10.472C134.621 9.384 133.333 8.84 131.749 8.84H127.909V20.36H131.749Z" fill="#00A000"/>
<rect y="31" width="141" height="2" fill="#00A000"/>
</svg>
