<svg width="26" height="27" viewBox="0 0 26 27" fill="none" xmlns="http://www.w3.org/2000/svg">
<path d="M1.54248 1.5H3.63049C4.92649 1.5 5.94648 2.616 5.83848 3.9L4.84248 15.852C4.67448 17.808 6.22247 19.488 8.19047 19.488H20.9705C22.6985 19.488 24.2105 18.072 24.3425 16.356L24.9905 7.35601C25.1345 5.36401 23.6225 3.74399 21.6185 3.74399H6.12649" stroke="#000001" stroke-width="1.5" stroke-miterlimit="10" stroke-linecap="round" stroke-linejoin="round"/>
<path d="M18.6425 25.5C19.4709 25.5 20.1425 24.8284 20.1425 24C20.1425 23.1716 19.4709 22.5 18.6425 22.5C17.8141 22.5 17.1425 23.1716 17.1425 24C17.1425 24.8284 17.8141 25.5 18.6425 25.5Z" stroke="#000001" stroke-width="1.5" stroke-miterlimit="10" stroke-linecap="round" stroke-linejoin="round"/>
<path d="M9.04248 25.5C9.87091 25.5 10.5425 24.8284 10.5425 24C10.5425 23.1716 9.87091 22.5 9.04248 22.5C8.21405 22.5 7.54248 23.1716 7.54248 24C7.54248 24.8284 8.21405 25.5 9.04248 25.5Z" stroke="#000001" stroke-width="1.5" stroke-miterlimit="10" stroke-linecap="round" stroke-linejoin="round"/>
<path d="M9.94247 8.70001H24.3425" stroke="#000001" stroke-width="1.5" stroke-miterlimit="10" stroke-linecap="round" stroke-linejoin="round"/>
</svg>
